<svg width="72" height="72" viewBox="0 0 72 72" fill="none" xmlns="http://www.w3.org/2000/svg">
<path d="M35.2086 16.95C37.2753 16.95 38.8753 17.1667 40.0086 17.6C41.1419 18 42.1086 18.4333 42.9086 18.9C43.3086 19.1333 43.6253 19.3167 43.8586 19.45C44.1253 19.55 44.3753 19.6 44.6086 19.6C44.9419 19.6 45.1753 19.4167 45.3086 19.05C45.4753 18.6833 45.6086 18.1333 45.7086 17.4H46.8586C46.8253 18.0667 46.7753 18.85 46.7086 19.75C46.6753 20.65 46.6419 21.85 46.6086 23.35C46.6086 24.8167 46.6086 26.7667 46.6086 29.2H45.4586C45.3253 27.4 44.9086 25.6667 44.2086 24C43.5086 22.3333 42.5419 20.95 41.3086 19.85C40.1086 18.75 38.6253 18.2 36.8586 18.2C35.3253 18.2 34.0586 18.6333 33.0586 19.5C32.0586 20.3333 31.5586 21.5333 31.5586 23.1C31.5586 24.3667 31.8753 25.4667 32.5086 26.4C33.1419 27.3 34.0919 28.2167 35.3586 29.15C36.6586 30.0833 38.2919 31.2333 40.2586 32.6C41.8253 33.6333 43.2253 34.6667 44.4586 35.7C45.6919 36.7333 46.6753 37.9 47.4086 39.2C48.1753 40.5 48.5586 42.0667 48.5586 43.9C48.5586 46.1 47.9586 47.9333 46.7586 49.4C45.5586 50.8333 43.9753 51.9167 42.0086 52.65C40.0419 53.35 37.8919 53.7 35.5586 53.7C33.3919 53.7 31.6586 53.5 30.3586 53.1C29.0919 52.7 28.0086 52.2833 27.1086 51.85C26.3753 51.3833 25.8086 51.15 25.4086 51.15C25.0753 51.15 24.8253 51.3333 24.6586 51.7C24.5253 52.0667 24.4086 52.6167 24.3086 53.35H23.1586C23.2253 52.5167 23.2586 51.55 23.2586 50.45C23.2919 49.3167 23.3086 47.8667 23.3086 46.1C23.3419 44.3333 23.3586 42.0833 23.3586 39.35H24.5086C24.6419 41.6167 25.0086 43.7333 25.6086 45.7C26.2419 47.6667 27.1919 49.2667 28.4586 50.5C29.7586 51.7 31.4753 52.3 33.6086 52.3C34.8086 52.3 35.8586 52.1 36.7586 51.7C37.6586 51.3 38.3753 50.7167 38.9086 49.95C39.4419 49.15 39.7086 48.1833 39.7086 47.05C39.7086 45.65 39.3919 44.4333 38.7586 43.4C38.1253 42.3667 37.2586 41.4 36.1586 40.5C35.0586 39.5667 33.7753 38.6333 32.3086 37.7C30.7419 36.6667 29.2753 35.6167 27.9086 34.55C26.5419 33.4833 25.4419 32.3 24.6086 31C23.8086 29.6667 23.4086 28.0667 23.4086 26.2C23.4086 24.0667 23.9586 22.3167 25.0586 20.95C26.1586 19.5833 27.6086 18.5833 29.4086 17.95C31.2419 17.2833 33.1753 16.95 35.2086 16.95Z" fill="#424242" fill-opacity="0.8"/>
<path d="M8.17161 58.8381C2.88789 52.3999 -6.90127e-06 44.3288 -7.62939e-06 36H1.86642C1.86642 43.8969 4.60459 51.5496 9.61438 57.6541C14.6242 63.7585 21.5956 67.937 29.3409 69.4777C37.0861 71.0183 45.1259 69.8257 52.0904 66.1031C59.055 62.3805 64.5133 56.3582 67.5353 49.0623C70.2459 42.5184 70.8461 35.3131 69.2869 28.4445H71.1983C72.7266 35.5639 72.0641 43.0059 69.2597 49.7766C66.0724 57.4714 60.3156 63.823 52.9703 67.7491C45.6249 71.6753 37.1455 72.9331 28.9767 71.3082C20.808 69.6834 13.4553 65.2764 8.17161 58.8381Z" fill="#424242" fill-opacity="0.7"/>
<path d="M46.2222 1.48175C41.7979 0.171589 37.1304 -0.285572 32.4714 0.173306C24.1827 0.989667 16.4335 4.65477 10.5441 10.5441L11.8639 11.8639C17.4479 6.27986 24.7954 2.80478 32.6543 2.03074C37.2583 1.57729 41.871 2.06725 46.2222 3.43298V1.48175Z" fill="#424242" fill-opacity="0.7"/>
</svg>
